<?xml version="1.0" encoding="UTF-8"?>
<svg width="629px" height="368px" viewBox="0 0 629 368" version="1.1" xmlns="http://www.w3.org/2000/svg" xmlns:xlink="http://www.w3.org/1999/xlink">
    <!-- Generator: Sketch 62 (91390) - https://sketch.com -->
    <title>clarity</title>
    <desc>Created with Sketch.</desc>
    <g id="Page-1" stroke="none" stroke-width="1" fill="none" fill-rule="evenodd">
        <g id="clarity">
            <rect id="Rectangle" fill="#FFFFFF" x="0" y="0" width="629" height="368"></rect>
            <g id="Logo" transform="translate(31.000000, 98.000000)" fill-rule="nonzero">
                <g id="Group" transform="translate(0.000000, 132.000000)" fill="#434C5C">
                    <path d="M381.239765,22.6612523 L369.801662,7.8167538 C368.622659,6.28452785 368.894256,4.08920688 370.411121,2.89050456 C371.928446,1.70193313 374.113394,1.97505167 375.29185,3.50502128 L384.716969,15.7397204 L394.142087,3.50502128 C394.703933,2.77080452 395.536642,2.29244143 396.453925,2.17694942 C397.371207,2.0614574 398.296506,2.31847546 399.022817,2.89050456 C400.540142,4.07907599 400.810732,6.28678419 399.632276,7.8167538 L388.194172,22.6612523 L388.194172,35.5003526 C388.194172,37.4374711 386.638914,39.0104316 384.716969,39.0104316 C382.795023,39.0104316 381.239765,37.4374711 381.239765,35.5003526 L381.239765,22.6587234 L381.239765,22.6612523 Z M316.910233,9.172231 L308.215959,9.172231 C306.294014,9.172231 304.738756,7.59927052 304.738756,5.66215198 C304.738756,3.72250456 306.296543,2.14954407 308.215959,2.14954407 L332.556385,2.14954407 C334.47833,2.14954407 336.033589,3.72250456 336.033589,5.66215198 C336.033589,7.59927052 334.47833,9.172231 332.556385,9.172231 L323.86464,9.172231 L323.86464,35.4978237 C323.86464,37.4374711 322.306853,39.0104316 320.387437,39.0104316 C318.465491,39.0104316 316.910233,37.4374711 316.910233,35.5003526 L316.910233,9.172231 Z M212.538488,26.7226261 L203.897321,26.7226261 L203.897321,35.4978237 C203.897321,37.4374711 202.339534,39.0104316 200.420118,39.0104316 C198.498172,39.0104316 196.942914,37.4374711 196.942914,35.5003526 L196.942914,5.66215198 C196.942914,3.72250456 198.498172,2.14954407 200.420118,2.14954407 L216.06627,2.14954407 C222.78802,2.14954407 228.237819,7.6523769 228.237819,14.4373495 C228.250013,19.4807394 225.179902,24.0197311 220.49433,25.8855684 L225.850488,33.4595502 C226.968251,35.0375684 226.606622,37.2275745 225.041248,38.3554529 C224.29209,38.8953807 223.358051,39.1131316 222.447359,38.9601619 C221.536666,38.8071922 220.725032,38.296219 220.193394,37.541155 L212.538488,26.7226261 L212.538488,26.7226261 Z M214.369394,19.7024681 L216.06627,19.7024681 C218.949187,19.7024681 221.283339,17.3455562 221.283339,14.4373495 C221.283339,11.5291429 218.949187,9.172231 216.06627,9.172231 L203.897321,9.172231 L203.897321,19.7024681 L214.369394,19.7024681 L214.369394,19.7024681 Z M153.340045,31.9902736 L136.224616,31.9902736 L134.049783,36.9266383 C133.680725,37.774414 132.988099,38.4394942 132.126053,38.7738639 C131.264006,39.1082336 130.304068,39.0841477 129.459874,38.7069666 C127.700454,37.9081343 126.912911,35.8411183 127.694719,34.0740669 L141.603534,2.48082675 C142.82751,-0.30093617 146.737151,-0.30093617 147.961127,2.48082675 L161.869941,34.0740669 C162.648835,35.8442796 161.859826,37.9179574 160.104786,38.7069666 C159.260593,39.0841477 158.300655,39.1082336 157.438608,38.7738639 C156.576561,38.4394942 155.883936,37.774414 155.514877,36.9266383 L153.340045,31.9902736 L153.340045,31.9902736 Z M150.249759,24.9675866 L144.78233,12.5508085 L139.314902,24.9675866 L150.249759,24.9675866 L150.249759,24.9675866 Z M33.5876798,8.29471125 C34.8976373,9.71088146 34.821771,11.9362918 33.4182452,13.2563647 C32.7464722,13.8915104 31.848142,14.2308833 30.9242131,14.1985648 C30.0002842,14.1662463 29.1278628,13.7649336 28.5021114,13.0844012 C26.2139675,10.5912189 22.9844851,9.17281555 19.6004701,9.17475988 C12.8787194,9.17475988 7.42899291,14.6750638 7.42899291,21.4600365 C7.42899291,28.2450091 12.8787194,33.7478419 19.6004701,33.7478419 C23.4509086,33.7464539 27.0711446,31.9138033 29.3518136,28.8114772 C29.8998905,28.067174 30.723212,27.5733585 31.6379109,27.4403114 C32.5526098,27.3072643 33.4824941,27.546068 34.2198987,28.1033921 C35.7574549,29.2666748 36.0710355,31.4667964 34.9203972,33.0195258 C31.3340537,37.8887188 25.647857,40.7646691 19.6004701,40.768 C9.03735765,40.768 0.474585613,32.124304 0.474585613,21.4600365 C0.474585613,10.7982979 9.03735765,2.15207295 19.6004701,2.15207295 C24.9718014,2.15207295 29.9941479,4.40530091 33.5876798,8.29724012 L33.5876798,8.29471125 Z M76.9755947,7.41972036 L76.9755947,31.9928024 L90.8844093,31.9928024 C92.8063546,31.9928024 94.361613,33.563234 94.361613,35.5028815 C94.361613,37.44 92.8038257,39.0129605 90.8844093,39.0129605 L73.4983911,39.0129605 C71.5764458,39.0129605 70.0211874,37.44 70.0211874,35.5028815 L70.0211874,7.41719149 C70.0211874,5.47754407 71.5764458,3.90458359 73.4983911,3.90458359 C75.4203364,3.90458359 76.9755947,5.47754407 76.9755947,7.41719149 L76.9755947,7.41972036 Z M271.704057,35.5028815 C271.704057,37.44 270.148798,39.0129605 268.226853,39.0129605 C266.304908,39.0129605 264.749649,37.44 264.749649,35.5028815 L264.749649,5.66215198 C264.749649,3.72503343 266.307437,2.15207295 268.226853,2.15207295 C270.148798,2.15207295 271.704057,3.72503343 271.704057,5.66468085 L271.704057,35.5028815 Z M517.500628,31.9902736 L500.380142,31.9902736 L498.207838,36.9266383 C497.838779,37.774414 497.146154,38.4394942 496.284107,38.7738639 C495.422061,39.1082336 494.462122,39.0841477 493.617929,38.7069666 C491.858508,37.9081343 491.070966,35.8411183 491.852774,34.0740669 L505.761589,2.48082675 C506.985564,-0.30093617 510.895206,-0.30093617 512.119181,2.48082675 L526.027996,34.0740669 C526.80689,35.8442796 526.01788,37.9179574 524.262841,38.7069666 C523.418648,39.0841477 522.45871,39.1082336 521.596663,38.7738639 C520.734616,38.4394942 520.041991,37.774414 519.672932,36.9266383 L517.498099,31.9902736 L517.500628,31.9902736 Z M514.407814,24.9675866 L508.940385,12.5508085 L503.472956,24.9675866 L514.407814,24.9675866 Z M567.582476,35.5003526 C567.582476,37.4374711 566.027218,39.0104316 564.105273,39.0104316 C562.183327,39.0104316 560.628069,37.4374711 560.628069,35.5003526 L560.628069,5.6596231 C560.628069,3.72250456 562.185856,2.14954407 564.105273,2.14954407 C566.027218,2.14954407 567.582476,3.72250456 567.582476,5.66215198 L567.582476,35.5003526 Z" id="Shape"></path>
                </g>
                <g id="Group-2" transform="translate(239.000000, 0.000000)">
                    <path d="M88.5062341,15.2216395 C90.0362037,16.7516091 90.0260882,19.2425514 88.4860031,20.7826365 C86.945918,22.3227216 84.4575047,22.3303082 82.9250062,20.8003386 C65.7109515,3.58628391 37.8528603,3.55340853 20.7020275,20.7017125 C3.55119463,37.8525453 3.58407001,65.7106365 20.8006536,82.9272201 C38.0147083,100.141275 65.8727995,100.174151 83.0236323,83.0258462 C84.5537087,81.484719 87.0433802,81.4756615 88.5846293,83.0056152 C90.1145989,84.5355848 90.1070123,87.0265271 88.5643983,88.5666122 C68.3232797,108.81026 35.4833041,108.772327 15.2194256,88.5059192 C-5.04445279,68.2420407 -5.08238592,35.4045939 15.1612615,15.1609465 C35.40238,-5.08270089 68.2423557,-5.04476776 88.5062341,15.2216395 Z" id="Path" fill="#A8E6CA"></path>
                    <path d="M76.2260153,27.5018584 C77.9417324,29.2312411 77.9315448,32.0237754 76.2032554,33.7405939 C74.4857375,35.4681814 71.693206,35.477237 69.9645199,33.7608249 C59.9324712,23.7262474 43.7198512,23.6959009 33.7560822,33.6596699 C23.7923132,43.6234389 23.8226597,59.8335301 33.8572372,69.8681076 C43.8918147,79.9026851 60.1019059,79.9330316 70.0656749,69.9692626 C71.7831928,68.2416751 74.5757243,68.2326195 76.3044104,69.9490316 C78.0208225,71.6777178 78.0117669,74.4702492 76.2841794,76.1877672 C62.8482645,89.6236821 41.0518876,89.5832201 27.5982706,76.1296031 C14.1446536,62.675986 14.1016627,40.8770803 27.5375776,27.4411654 C40.9734925,14.0077793 62.7723983,14.0482413 76.2260153,27.5018584 L76.2260153,27.5018584 Z" id="Path" fill="#FFCE7A"></path>
                    <path d="M64.0595958,39.6682778 C65.5307414,41.1495314 65.5228165,43.5428418 64.0418937,45.0143204 C63.335155,45.7262661 62.3744387,46.1281417 61.3712761,46.1314618 C60.3681135,46.134782 59.4047581,45.7392745 58.6933223,45.0320225 C54.9126536,41.2513538 48.8155351,41.2387094 45.0753284,44.9789161 C41.3351217,48.7191228 41.3477661,54.8162413 45.1284348,58.59691 C48.9116323,62.3801076 55.0087509,62.3902231 58.7489575,58.6525453 C60.2204361,57.1716225 62.6137465,57.1636976 64.0950001,58.6348432 C65.5661457,60.1160968 65.5582208,62.5094072 64.077298,63.9808857 C57.360605,70.6950499 46.4763253,70.6748189 39.7646901,63.9631836 C33.0505259,57.2515483 33.0302949,46.3647398 39.7469879,39.6505757 C46.4611521,32.9338827 57.3479606,32.9541137 64.0595958,39.6682778 L64.0595958,39.6682778 Z" id="Path" fill="#EE8491"></path>
                </g>
            </g>
        </g>
    </g>
</svg>