<?xml version="1.0" encoding="UTF-8"?>
<svg width="158px" height="27px" viewBox="0 0 158 27" version="1.1" xmlns="http://www.w3.org/2000/svg" xmlns:xlink="http://www.w3.org/1999/xlink">
    <!-- Generator: Sketch 62 (91390) - https://sketch.com -->
    <title>gennemantek</title>
    <desc>Created with Sketch.</desc>
    <g id="Page-1" stroke="none" stroke-width="1" fill="none" fill-rule="evenodd">
        <g id="gennemantek" transform="translate(-20.000000, -20.000000)" fill-rule="nonzero">
            <g id="g1919" transform="translate(99.392365, 33.310390) scale(-1, 1) rotate(-180.000000) translate(-99.392365, -33.310390) translate(0.614589, 0.502058)">
                <g id="g1921">
                    <g id="g1923-Clipped">
                        <g id="gennemantek" transform="translate(19.755555, 19.402777)">
                            <g id="g1929" transform="translate(30.581423, 8.283398)" fill="#231F20">
                                <path d="M4.23333324,4.23333324 C4.23333324,4.39561101 4.36597768,4.52825546 4.52790268,4.52825546 L7.79180261,4.52825546 C7.95443316,4.52825546 8.08672482,4.39561101 8.08672482,4.23333324 L8.08672482,3.23038604 C8.08672482,3.0659916 8.01687482,2.82045827 7.93220816,2.68252216 C7.93220816,2.68252216 7.9092776,0.191558329 4.2181638,0.152047219 C2.5121305,0.134761108 1.34020275,0.87806387 0.821266649,1.5599833 C0.471663878,2.02247496 0.349955548,2.25283884 0.349955548,4.13384991 C0.349955548,6.01239153 0.471663878,6.24381375 0.821266649,6.70559985 C1.34020275,7.38751928 2.5121305,8.11212482 4.2181638,8.11212482 C6.27344708,8.11212482 7.68984983,7.0682554 8.02569427,5.79331654 L6.58389152,5.79331654 C6.42161375,5.79331654 6.20006931,5.89103598 6.0907082,6.01062765 C6.0907082,6.01062765 5.25391933,6.92573318 4.2181638,6.92573318 C3.44169992,6.92573318 2.87831383,6.66185541 2.54282217,6.35352764 C2.11631384,5.95771098 1.99460551,5.73863598 1.99460551,4.13384991 C1.99460551,2.52694717 2.11631384,2.30787217 2.54282217,1.9106444 C2.87831383,1.60372774 3.44169992,1.34055553 4.2181638,1.34055553 C5.46664432,1.34055553 6.44242764,2.02247496 6.44242764,3.00037493 L6.44242764,3.11220549 C6.44242764,3.27448326 6.30872486,3.40818604 6.14750542,3.40818604 L4.52790268,3.40818604 C4.36597768,3.40818604 4.23333324,3.53977214 4.23333324,3.70204992 L4.23333324,4.23333324" id="path1931"></path>
                            </g>
                            <g id="g1933" transform="translate(41.044177, 8.273909)" fill="#231F20">
                                <path d="M0,7.76111094 C0,7.92409427 0.132644442,8.05568038 0.294569438,8.05568038 L6.63539708,8.05568038 C6.79767485,8.05568038 6.92890818,7.92409427 6.92890818,7.76111094 L6.92890818,7.22947484 C6.92890818,7.06684429 6.79767485,6.93525818 6.63539708,6.93525818 L1.9392194,6.93525818 C1.77694163,6.93525818 1.64464996,6.80155541 1.64464996,6.63927763 L1.64464996,4.99815545 C1.64464996,4.83587767 1.77694163,4.70323323 1.9392194,4.70323323 L5.85787487,4.70323323 C6.02015265,4.70323323 6.15279709,4.57058879 6.15279709,4.40866379 L6.15279709,3.94229158 C6.15279709,3.77930825 6.02015265,3.64772214 5.85787487,3.64772214 L1.9392194,3.64772214 C1.77694163,3.64772214 1.64464996,3.51401937 1.64464996,3.35209437 L1.64464996,1.64394441 C1.64464996,1.48166663 1.77694163,1.35008053 1.9392194,1.35008053 L6.63539708,1.35008053 C6.79767485,1.35008053 6.92890818,1.21637775 6.92890818,1.05409998 L6.92890818,0.523169433 C6.92890818,0.361244436 6.79767485,0.227541662 6.63539708,0.227541662 L0.294569438,0.227541662 C0.132644442,0.227541662 0,0.361244436 0,0.523169433 L0,7.76111094" id="path1935"></path>
                            </g>
                            <g id="g1937" transform="translate(49.969736, 8.273909)" fill="#231F20">
                                <path d="M0,7.76111094 C0,7.92409427 0.13123333,8.05568038 0.293511105,8.05568038 L1.25871108,8.05568038 C1.42098886,8.05568038 1.64076941,7.95619705 1.74730829,7.83519427 L6.2621582,2.71427216 C6.36975542,2.59362217 6.46394708,2.49237495 6.47276652,2.49237495 C6.48017486,2.49237495 6.48723041,2.62607772 6.48723041,2.78870827 L6.48723041,7.76111094 C6.48723041,7.92409427 6.61987485,8.05568038 6.78179985,8.05568038 L7.83766372,8.05568038 C7.99888316,8.05568038 8.13293871,7.92409427 8.13293871,7.76111094 L8.13293871,0.523169433 C8.13293871,0.361244436 7.99888316,0.227541662 7.83766372,0.227541662 L6.87422763,0.227541662 C6.71194985,0.227541662 6.49111097,0.328083326 6.38386653,0.448733323 L1.87042774,5.57036099 C1.76247774,5.69206932 1.66828607,5.79084709 1.65946663,5.79084709 C1.65099996,5.79084709 1.64429719,5.65926099 1.64429719,5.49592488 L1.64429719,0.523169433 C1.64429719,0.361244436 1.51200552,0.227541662 1.34972775,0.227541662 L0.293511105,0.227541662 C0.13123333,0.227541662 0,0.361244436 0,0.523169433 L0,7.76111094" id="path1939"></path>
                            </g>
                            <g id="g1941" transform="translate(60.843476, 8.273909)" fill="#231F20">
                                <path d="M0,7.76111094 C0,7.92409427 0.133702775,8.05568038 0.294569438,8.05568038 L1.25941664,8.05568038 C1.4202833,8.05568038 1.64076941,7.95619705 1.74907218,7.83519427 L6.2621582,2.71427216 C6.37081375,2.59362217 6.46500541,2.49237495 6.47276652,2.49237495 C6.48123319,2.49237495 6.48828875,2.62607772 6.48828875,2.78870827 L6.48828875,7.76111094 C6.48828875,7.92409427 6.62093319,8.05568038 6.78285818,8.05568038 L7.83872205,8.05568038 C8.00099982,8.05568038 8.13399704,7.92409427 8.13399704,7.76111094 L8.13399704,0.523169433 C8.13399704,0.361244436 8.00099982,0.227541662 7.83872205,0.227541662 L6.87422763,0.227541662 C6.71159707,0.227541662 6.4921693,0.328083326 6.38492486,0.448733323 L1.86972218,5.57036099 C1.76247774,5.69206932 1.66828607,5.79084709 1.66052496,5.79084709 C1.65311663,5.79084709 1.64394441,5.65926099 1.64394441,5.49592488 L1.64394441,0.523169433 C1.64394441,0.361244436 1.51306386,0.227541662 1.3504333,0.227541662 L0.294569438,0.227541662 C0.133702775,0.227541662 0,0.361244436 0,0.523169433 L0,7.76111094" id="path1943"></path>
                            </g>
                            <g id="g1945" transform="translate(71.718098, 8.273909)" fill="#231F20">
                                <path d="M0,7.76111094 C0,7.92409427 0.133702775,8.05568038 0.294569438,8.05568038 L6.63645541,8.05568038 C6.79802763,8.05568038 6.92996651,7.92409427 6.92996651,7.76111094 L6.92996651,7.22947484 C6.92996651,7.06684429 6.79802763,6.93525818 6.63645541,6.93525818 L1.9392194,6.93525818 C1.77799996,6.93525818 1.64535552,6.80155541 1.64535552,6.63927763 L1.64535552,4.99815545 C1.64535552,4.83587767 1.77799996,4.70323323 1.9392194,4.70323323 L5.8589332,4.70323323 C6.02121098,4.70323323 6.15244431,4.57058879 6.15244431,4.40866379 L6.15244431,3.94229158 C6.15244431,3.77930825 6.02121098,3.64772214 5.8589332,3.64772214 L1.9392194,3.64772214 C1.77799996,3.64772214 1.64535552,3.51401937 1.64535552,3.35209437 L1.64535552,1.64394441 C1.64535552,1.48166663 1.77799996,1.35008053 1.9392194,1.35008053 L6.63645541,1.35008053 C6.79802763,1.35008053 6.92996651,1.21637775 6.92996651,1.05409998 L6.92996651,0.523169433 C6.92996651,0.361244436 6.79802763,0.227541662 6.63645541,0.227541662 L0.294569438,0.227541662 C0.133702775,0.227541662 0,0.361244436 0,0.523169433 L0,7.76111094" id="path1947"></path>
                            </g>
                            <g id="g1949" transform="translate(80.643128, 8.273909)" fill="#231F20">
                                <path d="M0,7.76111094 C0,7.92409427 0.132644442,8.05568038 0.295274993,8.05568038 L1.25835831,8.05568038 C1.42098886,8.05568038 1.62313052,7.94314427 1.7060333,7.80485538 L4.50708879,3.20745548 C4.59175545,3.0691666 4.7275749,3.0691666 4.81118323,3.20745548 L7.55649983,7.80379705 C7.63728594,7.94314427 7.8394276,8.05568038 8.00170538,8.05568038 L8.96514147,8.05568038 C9.12741924,8.05568038 9.26006368,7.92409427 9.26006368,7.76111094 L9.26006368,0.523169433 C9.26006368,0.361244436 9.12741924,0.227541662 8.96514147,0.227541662 L7.90892483,0.227541662 C7.74841094,0.227541662 7.6157665,0.361244436 7.6157665,0.523169433 L7.6157665,4.81506378 C7.6157665,4.97734156 7.60871094,5.109986 7.60024428,5.109986 C7.59142483,5.109986 7.51698872,4.99603878 7.43126373,4.85774989 L5.46734988,1.60231663 C5.38338877,1.46438052 5.18230544,1.35008053 5.02038044,1.35008053 L4.23968324,1.35008053 C4.07775824,1.35008053 3.87667491,1.46438052 3.79165547,1.60231663 L1.82668329,4.85774989 C1.74342774,4.99603878 1.66863885,5.109986 1.65981941,5.109986 C1.65170552,5.109986 1.64464996,4.97734156 1.64464996,4.81506378 L1.64464996,0.523169433 C1.64464996,0.361244436 1.51306386,0.227541662 1.35113886,0.227541662 L0.295274993,0.227541662 C0.132644442,0.227541662 0,0.361244436 0,0.523169433 L0,7.76111094" id="path1951"></path>
                            </g>
                            <g id="g1953" transform="translate(91.241984, 8.276484)" fill="#231F20">
                                <path d="M3.17499993,6.70277763 C3.17499993,6.86611374 3.04341382,6.9984054 2.87972494,6.9984054 L0.499533322,6.9984054 C0.336197215,6.9984054 0.204963884,7.13034429 0.204963884,7.29226928 L0.204963884,7.7586415 C0.204963884,7.92162483 0.336197215,8.05321093 0.499533322,8.05321093 L7.49546928,8.05321093 C7.65774705,8.05321093 7.78933316,7.92162483 7.78933316,7.7586415 L7.78933316,7.29226928 C7.78933316,7.13034429 7.65774705,6.9984054 7.49546928,6.9984054 L5.11563044,6.9984054 C4.95229434,6.9984054 4.82070823,6.86611374 4.82070823,6.70277763 L4.82070823,0.520699989 C4.82070823,0.358774992 4.68771101,0.225072217 4.5243749,0.225072217 L3.46992215,0.225072217 C3.30764437,0.225072217 3.17499993,0.358774992 3.17499993,0.520699989 L3.17499993,6.70277763" id="path1955"></path>
                            </g>
                            <g id="g1957" transform="translate(98.016763, 8.191394)" fill="#231F20">
                                <path d="M6.70277763,1.76388885 C6.70277763,1.92581385 6.56978041,2.05951662 6.4064443,2.05951662 L3.38701937,2.05951662 C3.22509437,2.05951662 3.0120166,1.9519194 2.91570827,1.82315552 L1.95968051,0.546452766 C1.86337218,0.41768888 1.65029441,0.31009166 1.48872219,0.31009166 L0.341488881,0.31009166 C0.179211107,0.31009166 0.126647219,0.41768888 0.224013884,0.546452766 L5.76403598,7.90257483 C5.86069709,8.03204427 6.07342209,8.13823038 6.23569986,8.13823038 L13.3378219,8.13823038 C13.4986886,8.13823038 13.631333,8.00664427 13.631333,7.84366094 L13.631333,7.31202484 C13.631333,7.14939429 13.4986886,7.01780818 13.3378219,7.01780818 L8.64199703,7.01780818 C8.47936648,7.01780818 8.34742759,6.8841054 8.34742759,6.72182763 L8.34742759,5.08070544 C8.34742759,4.91842767 8.47936648,4.78543045 8.64199703,4.78543045 L12.5602997,4.78543045 C12.7225775,4.78543045 12.8541636,4.65313879 12.8541636,4.49086101 L12.8541636,4.02484158 C12.8541636,3.86185825 12.7225775,3.73027214 12.5602997,3.73027214 L8.64199703,3.73027214 C8.47936648,3.73027214 8.34742759,3.59656937 8.34742759,3.43464437 L8.34742759,1.72649441 C8.34742759,1.56421663 8.47936648,1.43263052 8.64199703,1.43263052 L13.3378219,1.43263052 C13.4986886,1.43263052 13.631333,1.29892775 13.631333,1.13664997 L13.631333,0.605719431 C13.631333,0.443794435 13.4986886,0.31009166 13.3378219,0.31009166 L6.99734707,0.31009166 C6.83436374,0.31009166 6.70277763,0.443794435 6.70277763,0.605719431 L6.70277763,1.76388885 M6.4064443,3.11432215 C6.56978041,3.11432215 6.70277763,3.24590826 6.70277763,3.40783326 L6.70277763,6.78779707 C6.70277763,6.95113318 6.69395819,7.08377762 6.68725541,7.08377762 C6.67843596,7.08377762 6.59518041,6.97512207 6.50063597,6.84247763 L4.03930547,3.35562215 C3.94652491,3.22191937 4.00191102,3.11432215 4.16454157,3.11432215 L6.4064443,3.11432215 Z" id="path1959"></path>
                            </g>
                            <g id="g1961" transform="translate(113.643690, 8.273909)" fill="#231F20">
                                <path d="M0,7.76111094 C0,7.92409427 0.132291664,8.05568038 0.295980549,8.05568038 L1.25871108,8.05568038 C1.4202833,8.05568038 1.64112219,7.95619705 1.74836663,7.83519427 L6.26356931,2.71427216 C6.37010819,2.59362217 6.46394708,2.49237495 6.4731193,2.49237495 C6.48123319,2.49237495 6.48828875,2.62607772 6.48828875,2.78870827 L6.48828875,7.76111094 C6.48828875,7.92409427 6.61952208,8.05568038 6.78179985,8.05568038 L7.83801649,8.05568038 C8.00029427,8.05568038 8.13258593,7.92409427 8.13258593,7.76111094 L8.13258593,0.523169433 C8.13258593,0.361244436 8.00029427,0.227541662 7.83801649,0.227541662 L6.87352207,0.227541662 C6.71194985,0.227541662 6.49146375,0.328083326 6.38527764,0.448733323 L1.87113329,5.57036099 C1.76283052,5.69206932 1.66828607,5.79084709 1.66052496,5.79084709 C1.65135274,5.79084709 1.64429719,5.65926099 1.64429719,5.49592488 L1.64429719,0.523169433 C1.64429719,0.361244436 1.51306386,0.227541662 1.35078608,0.227541662 L0.295980549,0.227541662 C0.132291664,0.227541662 0.00105833331,0.361244436 0.00105833331,0.523169433 L0.00105833331,7.76111094" id="path1963"></path>
                            </g>
                            <g id="g1965" transform="translate(124.518488, 8.273909)" fill="#231F20">
                                <path d="M0,7.76111094 C0,7.92409427 0.132291664,8.05568038 0.294569438,8.05568038 L1.35078608,8.05568038 C1.51306386,8.05568038 1.64429719,7.92409427 1.64429719,7.76111094 L1.64429719,4.31623602 C1.64429719,4.15395824 1.65241107,4.0213138 1.65946663,4.0213138 C1.66758052,4.0213138 1.77376663,4.1102138 1.89441662,4.21851657 L5.9192582,7.8584776 C6.0399082,7.96713316 6.26956653,8.05568038 6.43219708,8.05568038 L7.79286094,8.05568038 C7.95513871,8.05568038 7.98900538,7.96819149 7.86623872,7.85953594 L4.83446656,5.16254989 C4.71381656,5.05530544 4.69758879,4.86445267 4.80059989,4.73851101 L8.26734704,0.457552768 C8.36929982,0.330199993 8.32026371,0.227541662 8.15763315,0.227541662 L6.79838041,0.227541662 C6.63645541,0.227541662 6.42090819,0.332669437 6.32283597,0.461786101 L3.72815547,3.82164158 C3.63008325,3.94899436 3.44240548,3.97404158 3.31434715,3.87596936 L1.87995274,2.79294161 C1.75048329,2.69416383 1.64429719,2.48143883 1.64429719,2.31951384 L1.64429719,0.523169433 C1.64429719,0.361244436 1.51306386,0.227541662 1.35078608,0.227541662 L0.294569438,0.227541662 C0.132291664,0.227541662 0,0.361244436 0,0.523169433 L0,7.76111094" id="path1967"></path>
                            </g>
                            <g id="g1969" transform="translate(133.240107, 8.276484)" fill="#231F20">
                                <path d="M3.17499993,6.70277763 C3.17499993,6.86611374 3.04094438,6.9984054 2.8786666,6.9984054 L0.498474989,6.9984054 C0.336197215,6.9984054 0.203552773,7.13034429 0.203552773,7.29226928 L0.203552773,7.7586415 C0.203552773,7.92162483 0.336197215,8.05321093 0.498474989,8.05321093 L7.49335261,8.05321093 C7.65563039,8.05321093 7.78827483,7.92162483 7.78827483,7.7586415 L7.78827483,7.29226928 C7.78827483,7.13034429 7.65563039,6.9984054 7.49335261,6.9984054 L5.113161,6.9984054 C4.95053045,6.9984054 4.81964989,6.86611374 4.81964989,6.70277763 L4.81964989,0.520699989 C4.81964989,0.358774992 4.68559434,0.225072217 4.52331657,0.225072217 L3.46851103,0.225072217 C3.30658604,0.225072217 3.17499993,0.358774992 3.17499993,0.520699989 L3.17499993,6.70277763" id="path1971"></path>
                            </g>
                            <g id="g1973" transform="translate(146.755552, 8.273909)" fill="#231F20">
                                <path d="M0,7.76111094 C0,7.92409427 0.131586108,8.05568038 0.29421666,8.05568038 L1.34831664,8.05568038 C1.51094719,8.05568038 1.64464996,7.92409427 1.64464996,7.76111094 L1.64464996,0.523169433 C1.64464996,0.361244436 1.51094719,0.227541662 1.34831664,0.227541662 L0.29421666,0.227541662 C0.131586108,0.227541662 0,0.361244436 0,0.523169433 L0,7.76111094" id="path1975"></path>
                            </g>
                            <g id="g1977" transform="translate(149.809267, 8.276484)" fill="#231F20">
                                <path d="M3.17499993,6.70277763 C3.17499993,6.86611374 3.04200271,6.9984054 2.87972494,6.9984054 L0.500591656,6.9984054 C0.338666659,6.9984054 0.204963884,7.13034429 0.204963884,7.29226928 L0.204963884,7.7586415 C0.204963884,7.92162483 0.338666659,8.05321093 0.500591656,8.05321093 L7.49546928,8.05321093 C7.65774705,8.05321093 7.78933316,7.92162483 7.78933316,7.7586415 L7.78933316,7.29226928 C7.78933316,7.13034429 7.65774705,6.9984054 7.49546928,6.9984054 L5.11527766,6.9984054 C4.95229434,6.9984054 4.82035545,6.86611374 4.82035545,6.70277763 L4.82035545,0.520699989 C4.82035545,0.358774992 4.68771101,0.225072217 4.52543323,0.225072217 L3.47098048,0.225072217 C3.30764437,0.225072217 3.17499993,0.358774992 3.17499993,0.520699989 L3.17499993,6.70277763" id="path1979"></path>
                            </g>
                            <g id="g1981" transform="translate(12.279348, 4.038670)" fill="#00AAAF">
                                <path d="M3.5277777,2.11666662 C2.94251938,2.70404161 2.32868606,3.0501166 1.89618051,3.03953327 C1.78470274,3.03953327 1.68133885,3.02013049 1.58079719,2.9802666 C0.977547201,2.74143605 0.469194434,2.32692217 0.0719666651,1.75683329 C0.0645583319,1.66722774 0.0589138876,1.5853833 0.0578555543,1.50671386 C0.0578555543,1.41887219 0.0610305542,1.32714997 0.0656166652,1.22801942 C0.0776111094,0.857955537 0.15980833,0.46989999 0.269522216,0.079727776 C0.379236103,0.0747888872 0.487538878,0.0642055541 0.598311098,0.0642055541 C1.78470274,0.0642055541 2.91500271,0.29421666 3.95534436,0.704144429 C3.93029714,0.899936091 3.9006638,1.09008331 3.85797769,1.26364997 C3.79976936,1.50071663 3.68123603,1.80304718 3.5277777,2.11666662" id="path1983"></path>
                            </g>
                            <g id="g1985" transform="translate(4.411098, 6.731705)" fill="#39B552">
                                <path d="M5.29166655,3.17499993 C5.32694433,3.22756382 5.35516655,3.28294993 5.38797488,3.34398048 C5.39679433,3.43358604 5.40246825,3.51719437 5.40246825,3.59833325 C5.40773044,4.62421101 4.69970545,5.33929155 3.96381102,6.06142764 C3.95181658,6.07306931 3.9387638,6.08541653 3.92535825,6.09741098 C3.52424992,6.03496931 3.01766104,5.81659987 2.55516939,5.47052488 C1.67675274,4.82635267 0.877711092,3.9228888 0.0980722201,2.79153049 C0.537633321,1.81786385 1.14405831,0.936624979 1.87959996,0.179563885 C3.08151382,0.824441648 4.35433602,1.67534163 5.29166655,3.17499993" id="path1987"></path>
                            </g>
                            <g id="g1989" transform="translate(5.724560, 17.098186)" fill="#84C441">
                                <path d="M0.70555554,1.41111108 C1.4456833,0.831144426 1.46755552,0.740127761 1.93145829,0.4967111 C2.45850828,0.352424992 3.00354993,0.275166661 3.52424992,0.277636105 C4.73568878,0.277636105 5.78167487,0.682272207 6.30801931,1.47708052 C6.36940264,1.56809719 6.42514153,1.67004996 6.47912856,1.77729441 C6.48123319,2.43839995 6.20359709,3.14677771 6.0303832,3.29917771 C5.42431099,3.91406936 5.097286,4.2276888 3.40148326,4.5688249 C2.11560829,3.99309158 0.984955534,3.13231382 0.0938388868,2.06339718 C0.25153055,1.83550274 0.442383324,1.61607496 0.70555554,1.41111108" id="path1991"></path>
                            </g>
                            <g id="g1993" transform="translate(16.401415, 15.100194)" fill="#3E71B8">
                                <path d="M0,3.88055547 C0,3.7182777 0.0109361109,3.56023325 0.0370416658,3.4134777 C0.246591661,2.22708606 1.06785831,0.694266651 2.65429994,0.270227772 C3.56517214,0.487538878 4.40090268,0.933449979 5.07047489,1.4266333 C4.47533879,3.00672493 3.45439992,4.37726657 2.1487694,5.40208599 C1.80234163,5.29060822 1.46367497,5.16325544 1.16663609,5.00626933 C0.702733318,4.76638045 0.291747216,4.35186657 0,3.88055547" id="path1995"></path>
                            </g>
                            <g id="g1997" transform="translate(17.724155, 8.419465)" fill="#54C6F2">
                                <path d="M3.88055547,2.11666662 C3.63925548,2.55305272 3.10514993,3.12737493 2.46062495,3.38843048 C0.832555537,2.84021383 0.0366888881,1.77023885 0.0500944433,0.926041646 L0.0500944433,0.912988869 C0.499533322,0.529166655 1.10243053,0.232833328 1.39629441,0.204611107 C1.5472833,0.182738885 1.7963444,0.173919441 2.07362773,0.173919441 C2.37419439,0.173919441 2.71391938,0.184502774 3.05928882,0.193674996 C3.40818604,0.783519427 3.68546936,1.41746108 3.89678325,2.08138884 C3.89149158,2.09267773 3.88514158,2.10573051 3.88055547,2.11666662" id="path1999"></path>
                            </g>
                            <g id="g2001" transform="translate(0.008784, 0.316265)" fill="#231F20">
                                <path d="M12.6999997,0.70555554 C12.7056442,1.01494164 12.5303136,1.54763608 12.2957164,2.19886384 C12.013847,2.99261382 11.6783553,3.91759714 11.6300247,4.83905267 C11.623322,4.948061 11.6212053,5.05354156 11.6212053,5.15478878 C11.6145025,6.74863874 12.2879553,8.05779704 13.5279691,8.5488637 C13.6330969,8.59084426 13.7502191,8.61271648 13.8620497,8.61271648 C14.5693691,8.58202481 15.1503941,8.02745816 15.6996691,7.35823873 C16.2355385,6.6763193 16.6899163,5.83917765 16.8772413,5.08670267 C17.0045941,4.56494434 17.0416357,4.0054388 17.0755024,3.52107492 C17.1076052,3.04094438 17.1467635,2.58938883 17.2455413,2.31739717 C17.3661913,2.0408194 17.3965302,2.00413051 17.6314802,1.98649162 C17.7115607,1.98649162 17.8145718,2.00801107 17.9560357,2.07644995 C18.4054746,2.28670551 18.6072635,2.80599438 18.6118496,3.62831936 C18.6118496,4.25167768 18.4844968,4.99427489 18.3144579,5.72276098 L18.1906329,6.25333875 L18.7279135,6.16973042 C19.2059274,6.09741098 19.8857301,6.05119709 20.7133468,6.00780542 L21.2121745,5.97887765 C21.2573301,5.97499709 21.2996634,5.97252765 21.3349412,5.97252765 C21.8676356,5.97252765 22.3689328,6.20077486 22.6592689,6.55143597 C22.8204884,6.74440541 22.8938662,6.95042762 22.8928078,7.11023595 C22.8928078,7.14551373 22.8906912,7.17444151 22.8853995,7.20266373 C22.8631745,7.29509151 22.8391856,7.3363665 22.5932995,7.4157415 C22.3601134,7.47888872 21.9882856,7.49405817 21.5882356,7.49405817 C21.309894,7.49405817 21.008269,7.4855915 20.703469,7.47677206 C20.4074884,7.46795261 20.1093912,7.46124984 19.8285801,7.46124984 C19.5008496,7.46124984 19.2486135,7.4728915 19.0436496,7.49864428 C18.4382829,7.58860261 17.8046941,7.96819149 17.2684718,8.41939426 C16.7445969,8.88647203 16.3050358,9.37330535 16.2524719,9.943747 C16.2500024,9.978672 16.2500024,10.0068942 16.2500024,10.0202998 C16.2718746,11.0070192 17.2236691,11.9305914 18.8288079,12.2607914 C19.0196607,12.2967747 19.2147468,12.3189997 19.4077162,12.3189997 C20.9041995,12.3013608 21.8842162,11.1802331 22.2701551,10.5046637 C22.4027995,10.2721831 22.5255662,10.0047776 22.6550356,9.72855256 C23.0847189,8.74853592 23.6396384,7.81438038 24.1292939,7.82954983 C24.156105,7.82743316 24.1790356,7.82743316 24.1963217,7.82743316 C24.3981106,7.83201927 24.524405,7.90186927 24.6358828,8.08178593 C24.7173745,8.22007482 24.7709967,8.43279981 24.7709967,8.70690814 C24.7731133,9.24207202 24.562505,9.98290534 24.156105,10.708922 C23.6033023,11.7044609 22.6920773,12.4523497 22.1484467,12.8287636 L21.738519,13.113808 L22.1332773,13.4207247 C22.4818217,13.6905997 23.0540273,14.1506219 23.9081023,14.8851052 C25.2797022,16.0672635 25.5845022,16.8927635 25.5799668,17.3665441 C25.5799668,17.6480607 25.4846661,17.8434996 25.3791856,17.985669 C25.0592161,18.4234663 24.6612828,18.6372496 24.4298606,18.6284301 C24.2601745,18.5956218 23.9850078,18.649244 23.7821606,17.8378552 C23.4794773,16.5837302 21.6418579,14.8589997 19.0962135,14.2243525 C18.782594,14.1477997 18.4735607,14.1082886 18.1775802,14.1082886 C16.2327163,14.1199302 15.4266191,15.7942135 15.2689274,16.746008 C15.2417636,16.8906468 15.2304747,17.0363441 15.2304747,17.1802774 C15.2417636,18.4255829 16.0584441,19.7280385 17.247658,20.3693884 C17.8551413,20.6904162 18.5261246,20.8759773 19.0986829,21.0403718 C19.9580496,21.2703829 20.5302551,21.4933384 20.6576079,21.7769717 C20.7398051,21.9247856 20.7736718,22.0613106 20.7747301,22.1872523 C20.7736718,22.2980245 20.7482718,22.4031523 20.6904162,22.5118078 C20.5630634,22.7418189 20.214519,23.1376356 18.9755635,23.2406467 C18.9275857,23.2438217 18.8781968,23.2462912 18.8298663,23.2462912 C17.9140552,23.2582856 16.5657385,22.5400301 15.7053135,21.9632384 L14.745758,21.3331773 L15.1602719,22.4031523 C15.2237719,22.5675467 15.2975024,22.7527551 15.383933,22.9612467 C15.5165774,23.2801578 15.6559247,23.5517967 15.774458,23.7832189 C16.0044691,24.2284245 16.174508,24.5946078 16.1688635,24.8852967 C16.1656885,25.0761494 16.1162996,25.2557133 15.936383,25.4970133 C15.777633,25.6977439 15.6075941,25.7799411 15.3729969,25.7841744 C14.8685247,25.8127494 14.1164025,25.1724578 13.8863914,24.6122467 C13.6955386,24.1934995 13.5223247,23.2681634 13.4334247,22.6388078 L13.3434664,22.0119217 L12.8435803,22.402094 C12.5818192,22.6070578 12.1990553,22.8822245 11.6554247,23.2208912 C10.5731025,23.8996356 9.0646248,24.0213439 8.27299148,24.0171106 C7.98900538,24.0171106 7.70607761,24.003705 7.46160261,23.9786578 C6.95501374,23.9169217 6.83894985,23.7352411 6.76451374,23.60683 C6.7239443,23.5278078 6.70207207,23.4392606 6.70066096,23.3260189 C6.69960263,23.1355189 6.77333318,22.8790495 6.94866374,22.5795412 L6.9857054,22.5149828 C7.26016651,22.1431551 7.04744151,22.2595717 7.47712484,22.2059495 C7.7237165,22.2070078 8.16221926,22.2024217 8.99018869,22.0598995 C10.9840886,21.7311106 11.7101053,21.1776023 12.3144136,20.512969 C12.7395108,20.0416579 12.9610553,19.255669 12.9698747,18.4178218 C12.9688164,17.8237441 12.8449914,17.2042663 12.5027969,16.6899163 C12.0445386,16.0136413 11.1936386,15.6802663 10.2178553,15.6802663 C9.57333034,15.6813247 8.89917203,15.8270219 8.29486371,16.0958385 C7.16138873,16.5957246 6.94619429,16.7512996 6.4858193,17.1382968 C6.35670264,17.2469524 6.20324431,17.3732468 5.99686931,17.5341135 C5.26450266,18.106319 4.94453322,18.7917663 4.69441379,19.325519 C4.61115823,19.5043773 4.53531101,19.6599523 4.46193323,19.7873051 C4.27460824,20.1083329 3.96874991,20.2857801 3.62549714,20.2882496 C3.41065548,20.2871912 3.21874437,20.2159301 3.07410549,20.0931634 C2.62925272,19.709694 2.41970272,19.284244 2.40982495,18.798469 C2.40770828,18.2477829 2.71921105,17.6152524 3.35703326,17.0493968 C3.91618602,16.5484524 4.87009711,16.0048219 5.58799988,15.6396969 L6.52321375,15.1662691 L5.49592488,14.952133 C5.141736,14.8801663 4.68347767,14.7856219 4.08904713,14.6670886 L3.43923048,14.5411469 C2.46309439,14.3545275 1.60055274,14.183783 1.02728887,13.9498914 C0.435327768,13.698008 0.240241661,13.4810497 0.23565555,13.1586108 L0.23565555,13.1497914 L0.23565555,13.1444997 L0.23565555,13.1356803 C0.241299995,12.7268108 0.386997214,12.5296081 0.497769433,12.4121331 C0.673099985,12.2357442 0.940505535,12.1256775 1.31762497,12.124972 C1.43968608,12.124972 1.57091941,12.1366136 1.70814996,12.1623664 C2.0852694,12.2300997 2.96227493,12.4819831 3.72956658,12.7169331 L5.05636378,13.1247442 L4.10351102,12.1136831 C3.86997214,11.8667386 3.59480548,11.566172 3.27589437,11.2084553 C2.29552495,10.1254276 1.64323885,8.7330137 1.65876107,8.03592482 C1.65876107,7.96819149 1.66440552,7.90398594 1.67534163,7.85177483 C1.72578885,7.63058317 1.80974996,7.58860261 1.88136385,7.54732761 C2.00730551,7.4855915 2.10043884,7.46583595 2.1836944,7.46583595 C2.35161661,7.4728915 2.45039439,7.51204983 2.66841105,7.73782761 C2.87690271,7.96113594 3.13760549,8.35624704 3.49496937,8.90869703 L3.6103277,9.08402758 C4.58505268,10.5836859 5.51885543,11.6476636 6.55073041,12.4064886 C7.22947484,12.9017886 7.95266927,13.2048247 8.61271648,13.209058 C9.05368869,13.2136442 9.4724359,13.0524247 9.79028867,12.7342192 C10.2926442,12.2357442 10.9040081,11.664597 10.9096525,10.743847 C10.9096525,10.2594831 10.734322,9.73066923 10.3529692,9.12142202 C9.16340258,7.22030262 7.49688039,6.27732764 6.08929709,5.56930265 C5.61516377,5.33011933 5.12868322,5.189361 4.71734434,5.068711 C4.35257213,4.96358322 3.9895638,4.85457489 3.75814158,4.70958323 C3.52248603,4.55400823 3.44240548,4.45064435 3.43464437,4.22521935 C3.43464437,4.15431102 3.44593326,4.07176102 3.47556659,3.96839713 C3.58386937,3.67453325 3.74261936,3.3087027 4.81859156,3.28224437 C5.59258599,3.28012771 6.5143943,3.53448048 6.98358873,3.68758603 C7.81367483,3.95322769 9.0360498,4.72933878 9.75430534,5.22710822 L10.3540275,5.6416221 L10.3296859,4.91384156 C10.3222776,4.70711379 10.3187498,4.4703999 10.3187498,4.22063324 C10.3187498,3.79094992 10.3321553,3.32598882 10.372372,2.91147494 C10.4111775,2.45356939 10.737497,1.74060552 11.1608303,1.18991942 C11.5753442,0.624769431 12.1200331,0.256469439 12.3514553,0.282574994 C12.4403553,0.282574994 12.5070303,0.306211104 12.5641803,0.355247214 C12.6604886,0.442383324 12.6932969,0.508352767 12.6999997,0.70555554 M12.4149553,13.7452803 C12.5532442,13.780558 12.7045858,13.8348858 12.8665108,13.9117914 C13.1695469,14.0532552 13.3688664,14.1993052 13.5015108,14.3273636 L13.8020775,14.6134663 L14.0511386,14.2800914 C14.1495636,14.1477997 14.2779747,14.009158 14.4388413,13.8909775 C14.682258,13.7142358 14.929908,13.5216191 15.1197024,13.3748636 L15.437908,13.1300358 L15.1669747,12.8354664 C15.0396219,12.6971775 14.8829886,12.5010331 14.7175358,12.2357442 C14.5090441,11.9044858 14.4356663,11.5114914 14.4201441,11.2176275 L14.4014469,10.8249859 L14.0137441,10.870847 C13.8775719,10.8860164 13.7262303,10.8976581 13.5858247,10.8976581 L13.5004525,10.8976581 C13.3491108,10.893072 13.1914192,10.8754331 13.0520719,10.8577942 L12.6407331,10.8076998 L12.6386164,11.2218609 C12.6364997,11.629672 12.5881692,12.2530303 12.3941414,12.7606775 C12.3295831,12.9349497 12.2572636,13.0806469 12.1860025,13.2048247 L11.9404692,13.628158 L12.4149553,13.7452803 Z" id="path2003"></path>
                            </g>
                        </g>
                    </g>
                </g>
            </g>
        </g>
    </g>
</svg>