<?xml version="1.0" encoding="utf-8"?>
<!-- Generator: Adobe Illustrator 13.0.2, SVG Export Plug-In  -->
<!DOCTYPE svg PUBLIC "-//W3C//DTD SVG 1.1//EN" "http://www.w3.org/Graphics/SVG/1.1/DTD/svg11.dtd" [
	<!ENTITY ns_flows "http://ns.adobe.com/Flows/1.0/">
]>
<svg version="1.1"
	 xmlns="http://www.w3.org/2000/svg" xmlns:xlink="http://www.w3.org/1999/xlink" xmlns:a="http://ns.adobe.com/AdobeSVGViewerExtensions/3.0/"
	 x="0px" y="0px" width="92px" height="11px" viewBox="-0.154 -0.041 92 11" enable-background="new -0.154 -0.041 92 11"
	 xml:space="preserve">
<defs>
</defs>
<g>
	<g>
		<path fill="#E0341E" d="M0,0.213h3.875v9.738H0V0.213z M9.264,10.163V0l6.564,3.887V0h3.707v10.163l-6.406-3.886v3.886H9.264z
			 M29.013,7.127h0.961c0,0,1.681-0.053,1.681-2.072c0-2.018-1.625-2.08-1.625-2.08h-1.017V7.127z M25.033,10.163V0h5.78
			c0,0,4.771,0.319,4.771,5.055c0,4.736-5.05,5.108-5.05,5.108H25.033z M40.47,0.213h3.875v9.738H40.47V0.213z M49.508,0H59.61
			v3.028h-3.314v7.135h-3.65V3.028h-3.138V0z M64.887,0h8.918v2.497h-5.22v1.496h4.099v2.072h-4.099v1.486h5.332v2.611h-9.03V0z
			 M78.745,0h4.435l1.689,2.55L86.662,0h4.436l-3.819,5.055l3.764,5.108h-4.324l-1.904-2.558l-1.634,2.558h-4.435l3.875-5.108
			L78.745,0z"/>
	</g>
</g>
</svg>
