<?xml version="1.0" encoding="UTF-8"?>
<svg width="890px" height="634px" viewBox="0 0 890 634" version="1.1" xmlns="http://www.w3.org/2000/svg" xmlns:xlink="http://www.w3.org/1999/xlink">
    <!-- Generator: Sketch 58 (84663) - https://sketch.com -->
    <title>Shape</title>
    <desc>Created with Sketch.</desc>
    <g id="Page-1" stroke="none" stroke-width="1" fill="none" fill-rule="evenodd">
        <g id="mail" fill="#000000" fill-rule="nonzero">
            <g id="Group" transform="translate(444.950000, 316.700000) scale(-1, 1) rotate(-180.000000) translate(-444.950000, -316.700000) translate(0.000000, 0.300000)">
                <path d="M63.6,632 C35.8,627.4 12.6,607.2 3.2,579.6 L0.5,571.6 L0.2,319.5 L0,67.4 L2.5,57.6 C10.2,27.3 35.8,5.1 67.5,1.2 C79.8,-0.3 809.9,-0.4 821.9,1.1 C840.5,3.5 854.5,10.4 867.5,23.5 C879.3,35.5 885.3,46.7 888.5,62.6 C889.9,69.8 890,94.8 889.8,320.6 L889.5,570.6 L886.7,578.6 C878.1,603.9 860.8,621.2 835.5,629.9 L827.5,632.6 L448,632.7 C239.3,632.8 66.3,632.5 63.6,632 Z M812.5,584.2 C811.4,583.2 779.5,555.2 741.5,522.1 C703.6,488.9 621.5,417.2 559.2,362.7 C474.8,288.9 444.3,262.7 439.5,260.2 C427.7,253.9 412.6,255 402.8,262.9 C399.1,265.8 72,585 72,585.7 C72,585.9 239.1,586.1 443.2,586.1 C808,586.1 814.4,586.1 812.5,584.2 Z M842.8,198.6 L842.5,82.1 L732.6,215.1 C672.2,288.3 621.9,349.2 620.9,350.5 L619,352.9 L730.8,450.5 L842.5,548.1 L842.8,431.6 C842.9,367.5 842.9,262.7 842.8,198.6 Z M148.9,444.7 C204.6,390.4 250,345.5 249.800658,345 C249.4,343.8 47.6,99.3 47,99.1999251 C46.7,99.1 46.5,199.2 46.5,321.6 C46.5,444 46.8,544 47.1,543.900075 C47.4,543.7 93.2,499.1 148.9,444.7 Z M697.5,184.1 L810.2,47.6 L443.5,47.3 C241.8,47.2 74.7,47.4 72.3,47.8 C69.8,48.3 67.7,49 67.5999652,49.4 C67.5,50.3 283.1,311.9 284.1,312 C284.4,312.1 303.6,293.6 326.9,270.9 C350.1,248.2 371.7,227.7 374.8,225.3 C402.2,204 444,204 472.5,225.4 C475.8,227.9 502.1,250.6 531,275.9 C559.9,301.2 583.8,321.6 584.2,321.3 C584.5,320.9 635.5,259.2 697.5,184.1 Z" id="Shape"></path>
            </g>
        </g>
    </g>
</svg>