<?xml version="1.0" encoding="UTF-8"?>
<svg width="324px" height="325px" viewBox="0 0 324 325" version="1.1" xmlns="http://www.w3.org/2000/svg" xmlns:xlink="http://www.w3.org/1999/xlink">
    <!-- Generator: Sketch 61 (89581) - https://sketch.com -->
    <title>oci</title>
    <desc>Created with Sketch.</desc>
    <g id="Page-1" stroke="none" stroke-width="1" fill="none" fill-rule="evenodd">
        <g id="oci" transform="translate(-318.000000, 0.000000)" fill-rule="nonzero">
            <g id="Clipped">
                <g id="oci" transform="translate(318.000000, 0.000000)">
                    <path d="M122.78,177.81 C122.595022,174.679821 120.530404,171.974459 117.56,170.97 L53.49,151.28 C50.64,150.4 48.31,152.05 48.31,154.94 L48.31,230.74 C48.4806403,233.862859 50.5302826,236.569337 53.49,237.58 L117.56,257.26 C120.42,258.14 122.78,256.5 122.78,253.62 L122.78,177.81 Z M177,320.19 C177,323.07 174.64,324.77 171.77,323.91 L5.29,275.36 C2.32529657,274.394696 0.254099343,271.712456 0.07,268.6 L0.07,92.17 C0.07,89.28 2.43,87.61 5.29,88.46 L171.78,137 C174.746948,137.964344 176.821629,140.645959 177.01,143.76 L177.01,320.19 L177,320.19 Z" id="Shape" fill="#285BA7"></path>
                    <path d="M267.66,35.78 L308.18,47.05 C311.1,47.89 311.18,50.05 308.42,51.74 L190.1,126.25 C186.922467,128.054801 183.18986,128.621103 179.62,127.84 L8.82,78.29 C5.87,77.44 5.74,75.29 8.56,73.58 L133.76,2 C136.931964,0.201903853 140.648556,-0.38436531 144.22,0.35 L173.36,9.06 L175.72,9.77 C179.63,10.77 180.2,12.25 180.23,13.09 C180.117142,14.23051 179.505834,15.2627771 178.56,15.91 L103.82,60.91 C101.02,62.63 101.08,64.78 103.95,65.65 L169.11,84.65 C171.98,85.53 176.65,84.81 179.45,83.09 L252.7,39.13 C252.7,39.13 256.59,37.24 259.63,35.96 C262.18352,34.9169235 265.032149,34.8528293 267.63,35.78" id="Path" fill="#68C9D2"></path>
                    <path d="M276.56,165.86 C276.61,161.3 278.95,159.05 281.86,157.21 L316.38,135.21 C319.31,133.38 323.12,135.21 323.12,139.21 L323.12,235.85 C322.89,239.67 323.12,242.1 317.06,246.26 L280.95,272.4 C278.02,274.24 276.37,272.65 276.37,269.72 L276.58,165.82 L276.56,165.86 Z" id="Path" fill="#FAB076"></path>
                    <path d="M275,93.17 C275,90.24 277.39,86.34 280.3,84.5 L318.12,59.72 C321.03,57.89 323.12,59.93 323.12,62.86 L323,110 C322.861781,113.405396 321.010438,116.509782 318.08,118.25 L280.08,142.25 C277.17,144.09 275.08,142.95 275.08,140.03 L275.08,93.22 L275,93.17 Z" id="Path" fill="#FAB076"></path>
                </g>
            </g>
        </g>
    </g>
</svg>