<svg xmlns="http://www.w3.org/2000/svg" xmlns:xlink="http://www.w3.org/1999/xlink" width="959.21" height="563.36" viewBox="0 0 959.21 563.36"><defs><clipPath id="a" transform="translate(0 0)"><rect width="959.21" height="465.27" fill="none"/></clipPath></defs><title>OCI-HOME-TO-MICRONAUT-GRAILS</title><g clip-path="url(#a)"><path d="M440.78,177.81a7.7,7.7,0,0,0-5.22-6.84l-64.07-19.69c-2.85-.88-5.18.77-5.18,3.66v75.8a7.67,7.67,0,0,0,5.18,6.84l64.07,19.68c2.86.88,5.22-.76,5.22-3.64V177.81ZM495,320.19c0,2.88-2.36,4.58-5.23,3.72L323.29,275.36a7.58,7.58,0,0,1-5.22-6.76V92.17c0-2.89,2.36-4.56,5.22-3.71L489.78,137a7.59,7.59,0,0,1,5.23,6.76V320.19Z" transform="translate(0 0)" fill="#285ba7"/><path d="M585.66,35.78l40.52,11.27c2.92.84,3,3,.24,4.69L508.1,126.25a14.81,14.81,0,0,1-10.48,1.59L326.82,78.29c-2.95-.85-3.08-3-.26-4.71L451.76,2A15.06,15.06,0,0,1,462.22.35l29.14,8.71,2.36.71c3.91,1,4.48,2.48,4.51,3.32a3.88,3.88,0,0,1-1.67,2.82l-74.74,45c-2.8,1.72-2.74,3.87.13,4.74l65.16,19c2.87.88,7.54.16,10.34-1.56L570.7,39.13s3.89-1.89,6.93-3.17a11.2,11.2,0,0,1,8-.18" transform="translate(0 0)" fill="#68c9d2"/></g><path d="M594.56,165.86c.05-4.56,2.39-6.81,5.3-8.65l34.52-22c2.93-1.83,6.74,0,6.74,4l0,96.64c-.23,3.82,0,6.25-6.06,10.41l-36.11,26.14c-2.93,1.84-4.58.25-4.58-2.68l.21-103.9Z" transform="translate(0 0)" fill="#fab076"/><path d="M593,93.17c0-2.93,2.39-6.83,5.3-8.67l37.82-24.78c2.91-1.83,5,.21,5,3.14L641,110a10.07,10.07,0,0,1-4.92,8.25l-38,24c-2.91,1.84-5,.7-5-2.22l0-46.81Z" transform="translate(0 0)" fill="#fab076"/><path d="M12,415.69a19.16,19.16,0,0,0,1.15,6.79,15.22,15.22,0,0,0,8.45,8.87,17.22,17.22,0,0,0,6.71,1.25A17.22,17.22,0,0,0,35,431.35a15.14,15.14,0,0,0,8.45-8.87,20.47,20.47,0,0,0,0-13.53,15.7,15.7,0,0,0-3.29-5.39A15.39,15.39,0,0,0,35,400.05a17.22,17.22,0,0,0-6.71-1.26,17.22,17.22,0,0,0-6.71,1.26,15.25,15.25,0,0,0-5.15,3.51,15.42,15.42,0,0,0-3.3,5.39A19.2,19.2,0,0,0,12,415.69Zm-12,0a29.81,29.81,0,0,1,2.11-11.41A25,25,0,0,1,8,395.56,25.75,25.75,0,0,1,17,390a32.19,32.19,0,0,1,11.35-1.92A32.18,32.18,0,0,1,39.67,390a25.79,25.79,0,0,1,9,5.52,25.15,25.15,0,0,1,5.9,8.72,31.93,31.93,0,0,1,0,22.83,25.11,25.11,0,0,1-5.9,8.71,25.52,25.52,0,0,1-9,5.53,32.18,32.18,0,0,1-11.34,1.93A32.2,32.2,0,0,1,17,441.35a25.48,25.48,0,0,1-9-5.53,25,25,0,0,1-5.91-8.71A29.79,29.79,0,0,1,0,415.69Z" transform="translate(0 0)" fill="#7b7d80"/><path d="M89.44,432.16H99.81a13.33,13.33,0,0,0,2.72-.3,7.07,7.07,0,0,0,2.48-1,5.72,5.72,0,0,0,1.8-1.92,5.52,5.52,0,0,0,.72-2.9,4.75,4.75,0,0,0-.92-3,6,6,0,0,0-2.35-1.75,11.86,11.86,0,0,0-3-.81,22.78,22.78,0,0,0-3-.23H89.44v12Zm0-21.72h8.37a12.77,12.77,0,0,0,2.63-.3,7.31,7.31,0,0,0,2.34-1,4.73,4.73,0,0,0,1.66-1.78,5.37,5.37,0,0,0,.64-2.68,5,5,0,0,0-.7-2.7,5.1,5.1,0,0,0-1.82-1.67,9.16,9.16,0,0,0-2.51-.85,15.73,15.73,0,0,0-2.74-.26H89.44v11.21Zm-11.58-21H97.44a48.15,48.15,0,0,1,6.86.48,18.4,18.4,0,0,1,6.19,1.92,11.7,11.7,0,0,1,4.44,4,12.15,12.15,0,0,1,1.71,6.89,11.14,11.14,0,0,1-2.47,7.39,13.77,13.77,0,0,1-6.57,4.18v.15a14.58,14.58,0,0,1,4.71,1.45A12.86,12.86,0,0,1,116,418.7a12,12,0,0,1,2.35,3.89,14.06,14.06,0,0,1,.8,4.75,12.67,12.67,0,0,1-1.78,6.94,14.07,14.07,0,0,1-4.61,4.47,19.84,19.84,0,0,1-6.33,2.45,34.22,34.22,0,0,1-7,.75H77.86v-52.5Z" transform="translate(0 0)" fill="#7b7d80"/><path d="M166.42,424.37a37.88,37.88,0,0,1-.65,7.05,15.28,15.28,0,0,1-2.41,6,12.17,12.17,0,0,1-5.08,4.23,19.78,19.78,0,0,1-8.63,1.6,18.12,18.12,0,0,1-10.53-3c-2.87-2-4.72-5.07-5.57-9.27l10.6-2.61a5,5,0,0,0,1.75,3.27,5.09,5.09,0,0,0,3.44,1.34,4.5,4.5,0,0,0,3.13-1,5.88,5.88,0,0,0,1.63-2.48,11.72,11.72,0,0,0,.63-3.22c.08-1.17.1-2.24.1-3.23V389.45h11.59v34.92Z" transform="translate(0 0)" fill="#7b7d80"/><polygon points="190.13 389.45 225.81 389.45 225.81 400.12 201.7 400.12 201.7 409.91 224.48 409.91 224.48 420.58 201.7 420.58 201.7 431.27 227.14 431.27 227.14 441.95 190.13 441.95 190.13 389.45 190.13 389.45" fill="#7b7d80"/><path d="M284.09,403.08a11.26,11.26,0,0,0-4.19-3.18,14,14,0,0,0-5.75-1.11,14.46,14.46,0,0,0-6,1.26,14.71,14.71,0,0,0-4.82,3.51A16.63,16.63,0,0,0,260.1,409a20.47,20.47,0,0,0,0,13.53,16.72,16.72,0,0,0,3.15,5.33,14.47,14.47,0,0,0,4.71,3.54,13.6,13.6,0,0,0,5.83,1.25,12.89,12.89,0,0,0,6.3-1.48A12.38,12.38,0,0,0,284.6,427l9.64,7.21a20,20,0,0,1-8.45,6.88,26,26,0,0,1-10.52,2.23,32.2,32.2,0,0,1-11.35-1.93,25.7,25.7,0,0,1-9-5.53,24.68,24.68,0,0,1-5.89-8.71,31.79,31.79,0,0,1,0-22.83,24.72,24.72,0,0,1,5.89-8.72,26,26,0,0,1,9-5.52,32.19,32.19,0,0,1,11.35-1.92,28.93,28.93,0,0,1,4.63.39,24.1,24.1,0,0,1,4.75,1.31,20.74,20.74,0,0,1,4.48,2.37,17.69,17.69,0,0,1,3.87,3.63l-8.91,7.26Z" transform="translate(0 0)" fill="#7b7d80"/><polygon points="324.07 399.68 309.07 399.68 309.07 389.45 350.61 389.45 350.61 399.68 335.63 399.68 335.63 441.95 324.07 441.95 324.07 399.68 324.07 399.68" fill="#7b7d80"/><path d="M430.11,403.09a11.16,11.16,0,0,0-4.19-3.18,13.93,13.93,0,0,0-5.74-1.11,14.7,14.7,0,0,0-6,1.25,14.54,14.54,0,0,0-4.83,3.52,16.56,16.56,0,0,0-3.18,5.38A19.37,19.37,0,0,0,405,415.7a19.16,19.16,0,0,0,1.15,6.79,16.9,16.9,0,0,0,3.15,5.36,14.56,14.56,0,0,0,4.7,3.5,13.51,13.51,0,0,0,5.82,1.26,12.84,12.84,0,0,0,6.3-1.48,12.2,12.2,0,0,0,4.53-4.16l9.64,7.21a19.86,19.86,0,0,1-8.46,6.88,26,26,0,0,1-10.52,2.24,32.24,32.24,0,0,1-11.35-1.95,25.37,25.37,0,0,1-9-5.53,24.49,24.49,0,0,1-5.9-8.69,31.85,31.85,0,0,1,0-22.85,25,25,0,0,1,5.9-8.72,26.24,26.24,0,0,1,9-5.52,32.46,32.46,0,0,1,11.35-1.92,27.77,27.77,0,0,1,4.63.4,26,26,0,0,1,4.75,1.3,22.25,22.25,0,0,1,4.49,2.37,18.17,18.17,0,0,1,3.86,3.64l-8.91,7.26Z" transform="translate(0 0)" fill="#7b7d80"/><path d="M469.13,415.7a19.16,19.16,0,0,0,1.15,6.79,15.72,15.72,0,0,0,3.3,5.36,15.27,15.27,0,0,0,5.15,3.5,18.5,18.5,0,0,0,13.42,0,15.37,15.37,0,0,0,5.15-3.5,15.88,15.88,0,0,0,3.3-5.36,19.39,19.39,0,0,0,1.16-6.79A19.61,19.61,0,0,0,500.6,409a15.68,15.68,0,0,0-3.3-5.38,15.13,15.13,0,0,0-5.15-3.52,18.63,18.63,0,0,0-13.42,0,15,15,0,0,0-5.15,3.52,15.53,15.53,0,0,0-3.3,5.38,19.37,19.37,0,0,0-1.15,6.75Zm-12,0a29.67,29.67,0,0,1,2.13-11.42,25.22,25.22,0,0,1,5.89-8.72,26.23,26.23,0,0,1,9-5.52,34.48,34.48,0,0,1,22.69,0,26.47,26.47,0,0,1,9,5.52,25,25,0,0,1,5.89,8.72,32.13,32.13,0,0,1,0,22.85,24.46,24.46,0,0,1-5.89,8.69,25.59,25.59,0,0,1-9,5.53,34,34,0,0,1-22.69,0,25.37,25.37,0,0,1-9-5.53,24.73,24.73,0,0,1-5.89-8.69,29.69,29.69,0,0,1-2.13-11.43Z" transform="translate(0 0)" fill="#7b7d80"/><polygon points="534.98 389.45 552.48 389.45 564.57 423.71 564.72 423.71 576.88 389.45 594.31 389.45 594.31 441.97 582.73 441.97 582.73 401.69 582.6 401.69 568.78 441.97 559.96 441.97 546.69 401.69 546.53 401.69 546.53 441.97 534.98 441.97 534.98 389.45 534.98 389.45" fill="#7b7d80"/><path d="M629.89,411.7h7.71a14.16,14.16,0,0,0,3-.31,7.89,7.89,0,0,0,2.6-1,5.36,5.36,0,0,0,1.85-1.93,6.13,6.13,0,0,0,.71-3.08,5.24,5.24,0,0,0-.93-3.22,6.28,6.28,0,0,0-2.38-1.9,10.17,10.17,0,0,0-3.22-.85c-1.2-.11-2.32-.18-3.41-.18h-5.94V411.7Zm-11.56-22.25h19.51a38.93,38.93,0,0,1,7.7.73,17.48,17.48,0,0,1,6.34,2.57,13,13,0,0,1,4.3,4.89,16.77,16.77,0,0,1,1.6,7.75,17.74,17.74,0,0,1-1.5,7.71,12.76,12.76,0,0,1-4.07,5,16.51,16.51,0,0,1-6.15,2.64,36.68,36.68,0,0,1-7.72.76h-8.45V442H618.33V389.45Z" transform="translate(0 0)" fill="#7b7d80"/><path d="M722.67,421.7a24.85,24.85,0,0,1-1.43,8.61,19,19,0,0,1-4.16,6.83,19.39,19.39,0,0,1-6.94,4.52,26.25,26.25,0,0,1-9.57,1.64,26.54,26.54,0,0,1-9.65-1.64,19.43,19.43,0,0,1-6.93-4.52,18.88,18.88,0,0,1-4.18-6.83,25.33,25.33,0,0,1-1.41-8.61V389.45H690v31.82a12.73,12.73,0,0,0,.77,4.52,11.15,11.15,0,0,0,2.18,3.59,9.87,9.87,0,0,0,3.38,2.38,10.57,10.57,0,0,0,4.27.85,10.27,10.27,0,0,0,4.22-.85,9.81,9.81,0,0,0,3.34-2.38,10.83,10.83,0,0,0,2.19-3.59,12.73,12.73,0,0,0,.78-4.52V389.45h11.57V421.7Z" transform="translate(0 0)" fill="#7b7d80"/><polygon points="756.85 399.68 741.87 399.68 741.87 389.45 783.4 389.45 783.4 399.68 768.42 399.68 768.42 441.97 756.85 441.97 756.85 399.68 756.85 399.68" fill="#7b7d80"/><polygon points="802.47 389.45 814.02 389.45 814.02 441.97 802.47 441.97 802.47 389.45 802.47 389.45" fill="#7b7d80"/><polygon points="837.91 389.45 853.62 389.45 875.94 425.95 876.1 425.95 876.1 389.45 887.66 389.45 887.66 441.97 872.53 441.97 849.63 404.59 849.48 404.59 849.48 441.97 837.91 441.97 837.91 389.45 837.91 389.45" fill="#7b7d80"/><path d="M959.21,438.26a42.8,42.8,0,0,1-10.68,3.85,54.91,54.91,0,0,1-11.34,1.19,32.28,32.28,0,0,1-11.35-1.95,25.15,25.15,0,0,1-9-5.53,24.64,24.64,0,0,1-5.91-8.69,32,32,0,0,1,0-22.85,25.13,25.13,0,0,1,5.91-8.72,26,26,0,0,1,9-5.52,32.5,32.5,0,0,1,11.35-1.92,41.33,41.33,0,0,1,11.6,1.52,22.71,22.71,0,0,1,9.32,5.22l-8.16,8.9a16.45,16.45,0,0,0-5.33-3.71,19.5,19.5,0,0,0-7.43-1.25,17.54,17.54,0,0,0-6.7,1.25,15.17,15.17,0,0,0-5.16,3.52A15.38,15.38,0,0,0,922,409a19.6,19.6,0,0,0-1.13,6.75,19.39,19.39,0,0,0,1.13,6.79,15.57,15.57,0,0,0,3.3,5.36,15.41,15.41,0,0,0,5.16,3.5,17,17,0,0,0,6.7,1.26,22.11,22.11,0,0,0,6.53-.85,25.61,25.61,0,0,0,4.39-1.74v-8.54h-9.43V410.81h20.53v27.45Z" transform="translate(0 0)" fill="#7b7d80"/><text transform="translate(77.86 544.55)" font-size="46" fill="#7b7d80" font-family="Avenir-Medium, Avenir" font-weight="500" letter-spacing="0.08em">HOME TO GRAILS &amp; MICRONAUT</text></svg>