<?xml version="1.0" encoding="UTF-8"?>
<svg width="340px" height="231px" viewBox="0 0 340 231" version="1.1" xmlns="http://www.w3.org/2000/svg" xmlns:xlink="http://www.w3.org/1999/xlink">
    <!-- Generator: Sketch 59 (86127) - https://sketch.com -->
    <title>oracle</title>
    <desc>Created with Sketch.</desc>
    <g id="Page-1" stroke="none" stroke-width="1" fill="none" fill-rule="evenodd" stroke-linecap="round" stroke-linejoin="round">
        <g id="oracle">
            <g id="A">
                <g id="Group">
                    <polygon id="Path" fill="#E30613" points="0.909090909 0.909090909 339.909091 0.909090909 339.909091 230.909091 0.909090909 230.909091"></polygon>
                    <path d="M116.818182,208.272727 C65.5909091,208.272727 25,166.709091 25,116.454545 C25,65.2272727 66.5590909,24.6363636 116.818182,24.6363636 L224.090909,24.6363636 C275.318182,24.6363636 315.909091,66.2 315.909091,116.454545 C315.909091,167.681818 274.35,208.272727 224.090909,208.272727 L116.818182,208.272727 Z M222.163636,175.409091 C255.027273,175.409091 282.086364,148.35 282.086364,115.486364 C282.086364,82.6227273 255.027273,55.5636364 222.163636,55.5636364 L119.709091,55.5636364 C86.8454545,55.5636364 59.7863636,82.6227273 59.7863636,115.486364 C59.7863636,148.35 86.8545455,175.409091 119.713636,175.409091 L222.163636,175.409091 Z" id="Shape" fill="#FFFFFF"></path>
                </g>
            </g>
        </g>
    </g>
</svg>