<?xml version="1.0" encoding="UTF-8"?>
<svg width="168px" height="36px" viewBox="0 0 168 36" version="1.1" xmlns="http://www.w3.org/2000/svg" xmlns:xlink="http://www.w3.org/1999/xlink">
    <!-- Generator: Sketch 63.1 (92452) - https://sketch.com -->
    <title>seedtag</title>
    <desc>Created with Sketch.</desc>
    <g id="Page-1" stroke="none" stroke-width="1" fill="none" fill-rule="evenodd">
        <g id="seedtag" fill="#B8856C" fill-rule="nonzero">
            <path d="M73.8818605,8.75637209 C69.8749767,8.22474419 65.9844651,9.94353488 64.6876279,13.9546047 C63.5331163,17.5269767 63.9173953,22.3266977 66.9815814,24.8525581 C70.0491163,27.3884651 75.2297674,27.3139535 78.7845581,25.7374884 C79.0348837,25.6244651 79.1504186,25.3205581 79.0457674,25.0635349 L78.139907,22.839907 C78.0377674,22.587907 77.7464186,22.4606512 77.4877209,22.5435349 C73.9446512,23.7181395 69.1449302,23.6511628 68.9624186,18.904186 L79.7247442,18.904186 C79.9976744,18.904186 80.2203721,18.6831628 80.2203721,18.4085581 L80.2203721,16.5934884 C80.2203721,12.6133953 77.9833488,9.29888372 73.8818605,8.75637209 L73.8818605,8.75637209 Z M69.072093,15.7370233 C69.2102326,13.7612093 70.2751628,12.0507907 72.4284651,12.0507907 C74.5775814,12.0507907 75.7186977,13.7268837 75.7563721,15.7370233 L69.072093,15.7370233 L69.072093,15.7370233 Z M167.623349,23.8395349 L167.623349,9.48223256 C167.623349,9.20762791 167.402326,8.98493023 167.126047,8.98493023 L164.090326,8.98493023 C163.817395,8.98493023 163.553674,9.20260465 163.504279,9.47386047 L163.174419,11.2186047 C161.34093,8.65339535 157.500651,7.84716279 154.790605,9.49060465 C152.14,11.0997209 151.371442,14.4544186 151.312837,17.3411163 C151.252558,20.3232558 151.812651,23.9207442 154.45907,25.7542326 C157.058605,27.5575814 161.162605,26.9447442 162.838698,24.1869767 C162.838698,25.9551628 163.123349,28.0155349 162.013209,29.524186 C160.188093,32.0148837 156.228093,31.2002791 153.670419,30.208186 C153.417581,30.1085581 153.170605,30.2391628 153.11786,30.5070698 L152.659907,32.9341395 C152.608837,33.2037209 152.766233,33.5210233 153.018233,33.6323721 C157.361674,35.5696744 163.663349,35.1527442 166.45293,30.9390698 C167.861953,28.8100465 167.623349,26.2674419 167.623349,23.8395349 L167.623349,23.8395349 Z M158.931442,22.968 C155.953488,22.4815814 155.955163,18.3692093 156.272465,16.0894884 C156.578047,13.8725581 157.842233,12.2374884 160.247535,12.5790698 C163.082326,12.9817674 163.174419,16.0861395 163.174419,18.3533023 C163.092372,21.019814 162.076837,23.4853953 158.931442,22.968 L158.931442,22.968 Z M60.535907,17.3896744 C59.4090233,16.539907 58.0426977,16.0643721 56.7550698,15.5260465 C55.9002791,15.1643721 54.1505116,14.6637209 53.911907,13.5946047 C53.3819535,11.2353488 57.7697674,12.4258605 59.836,13.1383256 C60.0963721,13.2287442 60.344186,13.088093 60.3969302,12.8176744 L60.920186,10.0448372 C60.9695814,9.77944186 60.8013023,9.48390698 60.5409302,9.39767442 C57.748,8.4784186 54.323814,8.21302326 51.6866047,9.51990698 C48.9656744,10.8669767 48.2071628,14.7608372 50.3847442,16.9844651 C51.4446512,18.0619535 52.9457674,18.6245581 54.3062326,19.2114419 C55.3653023,19.6693953 57.6927442,20.3517209 57.6927442,21.7933953 C57.6927442,24.5344186 52.2885581,22.9964651 50.3412093,22.3032558 C50.084186,22.2103256 49.8338605,22.3442791 49.7844651,22.6146977 L49.2829767,25.2728372 C49.2335814,25.5432558 49.3951628,25.8488372 49.6505116,25.9467907 C52.640186,27.0745116 56.7374884,27.3005581 59.6074419,25.924186 C62.8306977,24.3736744 63.4485581,19.5856744 60.535907,17.3896744 L60.535907,17.3896744 Z M130.081209,23.2308837 C129.981581,22.9772093 129.686047,22.8189767 129.415628,22.8608372 C128.960186,22.9395349 128.539907,22.9805581 128.153953,22.9805581 C127.530233,22.9805581 127.030419,22.8189767 126.649488,22.4949767 C126.270233,22.1743256 126.080186,21.6728372 126.080186,20.9972093 L126.080186,12.5807442 L130.470512,12.5807442 C130.742605,12.5807442 130.96614,12.3605581 130.96614,12.0867907 L130.96614,9.50232558 C130.96614,9.22855814 130.742605,9.00669767 130.470512,9.00669767 L126.080186,9.00669767 L126.080186,5.78511628 C126.080186,5.51218605 125.856651,5.28948837 125.583721,5.28948837 L123.530884,5.28948837 C123.256279,5.28948837 122.957395,5.4987907 122.860279,5.75581395 L121.660558,8.97572093 L119.071907,10.3395349 C118.829953,10.4667907 118.632372,10.7891163 118.632372,11.0620465 L118.632372,12.0867907 C118.632372,12.3605581 118.854233,12.5807442 119.128837,12.5807442 L121.318977,12.5807442 L121.318977,20.9972093 C121.318977,22.9253023 121.751814,24.3669767 122.621674,25.3289302 C123.48986,26.2933953 124.877116,26.7739535 126.783442,26.7739535 C128.291256,26.7739535 129.594791,26.5713488 130.691535,26.1661395 C130.946047,26.0706977 131.070791,25.771814 130.971163,25.5173023 L130.081209,23.2308837 L130.081209,23.2308837 Z M116.131628,2.16669767 L112.34493,2.16669767 C112.072,2.16669767 111.849302,2.39023256 111.849302,2.66232558 L111.849302,10.9557209 C110.011628,8.51944186 106.263442,7.94511628 103.693209,9.57348837 C100.98986,11.2872558 100.311721,14.7985116 100.311721,17.7664186 C100.311721,20.8172093 101.06186,24.5344186 104.01386,26.104186 C106.641023,27.5014884 110.431907,26.7697674 112.052744,24.1970233 L112.78614,26.0028837 C112.889116,26.2557209 113.19386,26.4616744 113.47014,26.4616744 L116.131628,26.4616744 C116.404558,26.4616744 116.62893,26.239814 116.62893,25.9660465 L116.62893,2.66232558 C116.62893,2.39023256 116.404558,2.16669767 116.131628,2.16669767 L116.131628,2.16669767 Z M112.176651,18.3122791 C112.096279,20.8515349 111.221395,23.2091163 108.247628,22.968 C105.352558,22.7285581 105.019349,19.2625116 105.16,17.0037209 C105.318233,14.4452093 106.623442,11.9988837 109.567907,12.6611163 C112.117209,13.2354419 112.187535,16.1991628 112.176651,18.3122791 L112.176651,18.3122791 Z M91.9706047,8.77227907 C87.9612093,8.24065116 84.0690233,9.95776744 82.7730233,13.9688372 C81.6185116,17.5437209 82.0044651,22.3409302 85.0669767,24.8709767 C88.1345116,27.4035349 93.3151628,27.328186 96.8707907,25.7542326 C97.1227907,25.6428837 97.2374884,25.3356279 97.1328372,25.0819535 L96.2269767,22.8549767 C96.124,22.6013023 95.8309767,22.4765581 95.5714419,22.5619535 C92.0308837,23.7323721 87.232,23.6670698 87.0503256,18.9209302 L97.8126512,18.9209302 C98.0847442,18.9209302 98.3074419,18.6982326 98.3074419,18.4253023 L98.3074419,16.6102326 C98.3074419,12.6284651 96.0729302,9.31562791 91.9706047,8.77227907 L91.9706047,8.77227907 Z M87.16,15.7529302 C87.2973023,13.7762791 88.3613953,12.0675349 90.5155349,12.0675349 C92.663814,12.0675349 93.8057674,13.7436279 93.8409302,15.7529302 L87.16,15.7529302 L87.16,15.7529302 Z M146.411814,10.1771163 C145.164372,9.15990698 143.37107,8.64837209 141.029395,8.64837209 C138.947256,8.64837209 137.024186,9.02762791 135.263535,9.78948837 C135.00986,9.89916279 134.892651,10.1980465 134.99814,10.4533953 L135.979349,12.8737674 C136.082326,13.1274419 136.370326,13.2429767 136.625674,13.14 C138.216372,12.4995349 139.621209,12.1772093 140.839349,12.1772093 C142.65107,12.1772093 143.555256,13.0596279 143.555256,14.8294884 L143.555256,15.5963721 L140.528744,15.6876279 C137.91414,15.7822326 135.963442,16.2703256 134.666605,17.1477209 C133.369767,18.0276279 132.72093,19.3947907 132.72093,21.2458605 C132.72093,23.0148837 133.203163,24.3803721 134.166791,25.3373023 C135.129581,26.2950698 136.447349,26.7739535 138.123442,26.7739535 C139.48893,26.7739535 140.590698,26.5797209 141.442977,26.1870698 C142.287721,25.7977674 143.239628,25.0995349 144.040837,24.0873488 L144.783442,25.9995349 C144.879721,26.2557209 145.181953,26.4616744 145.457395,26.4616744 L147.792372,26.4616744 C148.065302,26.4616744 148.288,26.239814 148.288,25.9660465 L148.288,14.8294884 C148.288,12.7456744 147.662605,11.196 146.411814,10.1771163 L146.411814,10.1771163 Z M143.555256,19.8100465 C143.555256,20.8615814 143.22707,21.7054884 142.564837,22.3409302 C141.903442,22.9755349 141.026047,23.2928372 139.920093,23.2928372 C138.378791,23.2928372 137.606884,22.6205581 137.606884,21.2768372 C137.606884,20.3433488 137.946791,19.6434419 138.625767,19.1871628 C139.300558,18.7292093 140.332837,18.4788837 141.715907,18.4378605 L143.555256,18.3742326 L143.555256,19.8100465 L143.555256,19.8100465 Z" id="Fill-1"></path>
            <path d="M18.0408372,0.138976744 C8.23376744,0.138976744 0.278604651,8.09246512 0.278604651,17.9020465 C0.278604651,27.7149767 8.23376744,35.6667907 18.0408372,35.6667907 C27.852093,35.6667907 35.8055814,27.7149767 35.8055814,17.9020465 C35.8055814,8.09246512 27.852093,0.138976744 18.0408372,0.138976744 L18.0408372,0.138976744 Z M18.0408372,5.21413953 C19.9145116,5.21413953 21.4306977,6.732 21.4306977,8.604 C21.4306977,10.4768372 19.9145116,11.9955349 18.0408372,11.9955349 C16.1705116,11.9955349 14.651814,10.4768372 14.651814,8.604 C14.651814,6.732 16.1705116,5.21413953 18.0408372,5.21413953 L18.0408372,5.21413953 Z M18.0492093,30.5907907 C18.0458605,30.5874419 18.044186,30.5857674 18.044186,30.5857674 C18.044186,30.5857674 18.0408372,30.5874419 18.0374884,30.5907907 C11.0325581,30.5891163 5.35376744,24.9086512 5.35376744,17.9020465 C5.35376744,15.5913488 5.97330233,13.4246512 7.05413953,11.5585116 C11.7517209,11.5585116 15.8515349,14.116186 18.044186,17.9095814 C20.2351628,14.116186 24.3333023,11.5610233 29.0275349,11.5585116 C30.1083721,13.4246512 30.7304186,15.5913488 30.7304186,17.9020465 C30.7304186,24.9086512 25.0524651,30.5874419 18.0492093,30.5907907 L18.0492093,30.5907907 Z" id="Fill-2"></path>
        </g>
    </g>
</svg>